<svg viewBox="0 0 800 600" xmlns="http://www.w3.org/2000/svg">
  <rect x="0" y="0" width="800" height="600" fill="#f8f9fa" />
  
  <path d="M 350 180 L 250 155" stroke="#3498db" stroke-width="2" stroke-linecap="round" fill="none" />
  <path d="M 450 180 L 550 155" stroke="#2ecc71" stroke-width="2" stroke-linecap="round" fill="none" />
  <path d="M 350 230 L 250 320" stroke="#f1c40f" stroke-width="2" stroke-linecap="round" fill="none" />
  <path d="M 450 230 L 550 320" stroke="#e74c3c" stroke-width="2" stroke-linecap="round" fill="none" />
  <path d="M 400 260 L 400 320" stroke="#34495e" stroke-width="2" stroke-linecap="round" fill="none" />
  <path d="M 400 400 L 400 420" stroke="#16a085" stroke-width="2" stroke-linecap="round" fill="none" />
  
  <path d="M 350 250 L 140 440" stroke="#3D84B8" stroke-width="2" stroke-linecap="round" fill="none" />
  <path d="M 450 250 L 660 440" stroke="#9b59b6" stroke-width="2" stroke-linecap="round" fill="none" />
  
  <rect x="10" y="10" width="780" height="60" rx="0" fill="#2c3e50" />
  <text x="400" y="48" font-family="'Noto Sans JP', sans-serif" font-size="24" font-weight="bold" fill="white" text-anchor="middle">ローコード市民開発の効果</text>
  
  <circle cx="400" cy="200" r="80" fill="#f1f5f9" stroke="#3498db" stroke-width="3" />
  <text x="400" y="185" font-family="'Noto Sans JP', sans-serif" font-size="18" font-weight="bold" fill="#2c3e50" text-anchor="middle">ローコード</text>
  <text x="400" y="210" font-family="'Noto Sans JP', sans-serif" font-size="18" font-weight="bold" fill="#2c3e50" text-anchor="middle">市民開発</text>
  <text x="400" y="235" font-family="'Noto Sans JP', sans-serif" font-size="11" fill="#2c3e50" text-anchor="middle">非IT人材によるアプリ開発</text>
  
  <g transform="translate(30, 100)">
    <rect x="0" y="0" width="220" height="110" rx="0" fill="white" stroke="#3498db" stroke-width="2" />
    <rect x="0" y="0" width="220" height="30" rx="0" fill="#3498db" />
    <text x="10" y="20" font-family="'Noto Sans JP', sans-serif" font-size="13" font-weight="bold" fill="white">💫 全社員の主体的な行動</text>
    <text x="10" y="48" font-family="'Noto Sans JP', sans-serif" font-size="11" fill="#333">・アプリ開発スキル強化</text>
    <text x="10" y="68" font-family="'Noto Sans JP', sans-serif" font-size="11" fill="#333">・自己効力（自分にもできる）感の獲得</text>
    <text x="10" y="88" font-family="'Noto Sans JP', sans-serif" font-size="11" fill="#333">・主体的な行動の活性化</text>
  </g>
  
  <g transform="translate(550, 100)">
    <rect x="0" y="0" width="220" height="110" rx="0" fill="white" stroke="#2ecc71" stroke-width="2" />
    <rect x="0" y="0" width="220" height="30" rx="0" fill="#2ecc71" />
    <text x="10" y="20" font-family="'Noto Sans JP', sans-serif" font-size="13" font-weight="bold" fill="white">🚀 スピーディーな業務Kaizen</text>
    <text x="10" y="48" font-family="'Noto Sans JP', sans-serif" font-size="11" fill="#333">・ニーズに合致した最適アプリ開発</text>
    <text x="10" y="68" font-family="'Noto Sans JP', sans-serif" font-size="11" fill="#333">・業務Kaizenスピード解決</text>
    <text x="10" y="88" font-family="'Noto Sans JP', sans-serif" font-size="11" fill="#333">・変化への柔軟な対応</text>
  </g>
  
  <g transform="translate(30, 270)">
    <rect x="0" y="0" width="220" height="110" rx="0" fill="white" stroke="#f1c40f" stroke-width="2" />
    <rect x="0" y="0" width="220" height="30" rx="0" fill="#f1c40f" />
    <text x="10" y="20" font-family="'Noto Sans JP', sans-serif" font-size="13" font-weight="bold" fill="white">💰 短期間・低コスト開発</text>
    <text x="10" y="48" font-family="'Noto Sans JP', sans-serif" font-size="11" fill="#333">・内製化の推進</text>
    <text x="10" y="68" font-family="'Noto Sans JP', sans-serif" font-size="11" fill="#333">・短期間で低コスト開発・改修・廃止</text>
    <text x="10" y="88" font-family="'Noto Sans JP', sans-serif" font-size="11" fill="#333">・アジャイルKaizen定着</text>
  </g>
  
  <g transform="translate(550, 270)">
    <rect x="0" y="0" width="220" height="110" rx="0" fill="white" stroke="#e74c3c" />
    <rect x="0" y="0" width="220" height="30" rx="0" fill="#e74c3c" />
    <text x="10" y="20" font-family="'Noto Sans JP', sans-serif" font-size="13" font-weight="bold" fill="white">🧠 言語化・AIプロンプト高度化</text>
    <text x="10" y="48" font-family="'Noto Sans JP', sans-serif" font-size="11" fill="#333">・業務の構造化・言語化スキル向上</text>
    <text x="10" y="68" font-family="'Noto Sans JP', sans-serif" font-size="11" fill="#333">・システム要件定義での齟齬の解消</text>
    <text x="10" y="88" font-family="'Noto Sans JP', sans-serif" font-size="11" fill="#333">・AI（言語モデル）自動化の適用</text>
  </g>
  
  <g transform="translate(30, 440)">
    <rect x="0" y="0" width="220" height="110" rx="0" fill="white" stroke="#3D84B8" />
    <rect x="0" y="0" width="220" height="30" rx="0" fill="#3D84B8" />
    <text x="10" y="20" font-family="'Noto Sans JP', sans-serif" font-size="13" font-weight="bold" fill="white">👥 部門間コラボレーション</text>
    <text x="10" y="48" font-family="'Noto Sans JP', sans-serif" font-size="11" fill="#333">・部門間ナレッジ共有</text>
    <text x="10" y="68" font-family="'Noto Sans JP', sans-serif" font-size="11" fill="#333">・協働で組織力を強化</text>
    <text x="10" y="88" font-family="'Noto Sans JP', sans-serif" font-size="11" fill="#333">・他部門への貢献で幸福度アップ</text>
  </g>
  
  <g transform="translate(550, 440)">
    <rect x="0" y="0" width="220" height="110" rx="0" fill="white" stroke="#9b59b6" />
    <rect x="0" y="0" width="220" height="30" rx="0" fill="#9b59b6" />
    <text x="10" y="20" font-family="'Noto Sans JP', sans-serif" font-size="13" font-weight="bold" fill="white">🌟 キャリア・エンゲージメント</text>
    <text x="10" y="48" font-family="'Noto Sans JP', sans-serif" font-size="11" fill="#333">・新たなスキル習得</text>
    <text x="10" y="68" font-family="'Noto Sans JP', sans-serif" font-size="11" fill="#333">・キャリア自律・成長サポート</text>
    <text x="10" y="88" font-family="'Noto Sans JP', sans-serif" font-size="11" fill="#333">・エンゲージメント向上</text>
  </g>
  
  <g transform="translate(290, 320)">
    <rect x="0" y="0" width="220" height="80" rx="0" fill="white" stroke="#34495e" />
    <text x="10" y="20" font-family="'Noto Sans JP', sans-serif" font-size="13" font-weight="bold" fill="#34495e">📚 ノウハウ流出・属人化の防止</text>
    <text x="10" y="40" font-family="'Noto Sans JP', sans-serif" font-size="11" fill="#333">・外部ベンダー脱却でノウハウ蓄積</text>
    <text x="10" y="60" font-family="'Noto Sans JP', sans-serif" font-size="11" fill="#333">・属人化の防止</text>
  </g>
  
  <g transform="translate(290, 420)">
    <rect x="0" y="0" width="220" height="80" rx="0" fill="white" stroke="#16a085" />
    <text x="10" y="20" font-family="'Noto Sans JP', sans-serif" font-size="13" font-weight="bold" fill="#16a085">📊 ROI検証・専門開発への昇華</text>
    <text x="10" y="40" font-family="'Noto Sans JP', sans-serif" font-size="11" fill="#333">・小規模開発でROI検証</text>
    <text x="10" y="60" font-family="'Noto Sans JP', sans-serif" font-size="11" fill="#333">・投資判断の精度向上でリスク抑制</text>
  </g>
  
  </svg>
